<?xml version="1.0" encoding="UTF-8"?>
<svg version="1.1" xmlns="http://www.w3.org/2000/svg" width="693" height="557">
<path d="M0 0 C228.69 0 457.38 0 693 0 C693 183.81 693 367.62 693 557 C464.31 557 235.62 557 0 557 C0 373.19 0 189.38 0 0 Z " fill="#FEFEFE" transform="translate(0,0)"/>
<path d="M0 0 C1.12112938 -0.0049926 1.12112938 -0.0049926 2.26490784 -0.01008606 C3.84058016 -0.01511714 5.41626301 -0.01749558 6.99194336 -0.01733398 C9.34182509 -0.01949712 11.69121808 -0.03762892 14.04101562 -0.05664062 C21.77962702 -0.08620096 29.40865693 0.15921123 37.1015625 1.0390625 C38.10962196 1.15251762 38.10962196 1.15251762 39.13804626 1.26826477 C45.27167376 2.04931717 51.08916825 3.68541765 56.90625 5.76171875 C59.65576038 6.72857954 62.41411412 7.64017947 65.1953125 8.51171875 C97.44226425 18.85970304 117.98528996 43.26896997 133.17382812 72.52832031 C136.11924626 78.33227735 138.70480906 84.11719111 140.89453125 90.25 C142.01001879 93.35921342 143.27037343 96.37991535 144.56640625 99.41796875 C146.29022315 103.51203388 147.84113383 107.60086466 149.16796875 111.83984375 C150.08023749 114.5858648 151.11614564 117.28038794 152.13867188 119.98681641 C153.47625672 123.62123947 154.67220623 127.30096436 155.87890625 130.98046875 C158.82568736 139.88433986 161.96854488 148.68024164 165.37890625 157.41796875 C167.44806567 162.75855148 169.29072621 168.14895075 171.07055664 173.59204102 C172.37821138 177.56070968 173.79218873 181.46522731 175.31640625 185.35546875 C179.8143715 196.85498369 183.77433498 208.56410231 187.62890625 220.29296875 C189.22765961 225.13089015 190.96167458 229.85848682 192.90625 234.56640625 C194.66431687 238.98479318 196.19692202 243.48442455 197.77734375 247.96875 C198.65483907 250.38038984 199.57129381 252.70874331 200.62890625 255.04296875 C201.90954421 258.09210675 202.66862559 260.97513127 203.40234375 264.18359375 C203.95298347 266.21058635 204.69380948 268.00967301 205.56640625 269.91796875 C206.94140625 273.16796875 206.94140625 273.16796875 206.94140625 277.16796875 C207.57304687 276.63429688 208.2046875 276.100625 208.85546875 275.55078125 C217.26570323 268.54629201 217.26570323 268.54629201 221.61328125 265.765625 C230.03968201 260.33038056 234.03413628 256.09585136 236.94140625 246.16796875 C237.66448762 244.23301916 238.38832964 242.29833003 239.12280273 240.36767578 C239.99587386 238.02160634 240.81567434 235.66176076 241.625 233.29296875 C241.91310547 232.4525 242.20121094 231.61203125 242.49804688 230.74609375 C243.08487934 229.02853531 243.66821994 227.30977982 244.24804688 225.58984375 C245.88705658 220.82977994 247.76614598 216.41490835 250.08666992 211.95068359 C251.25014262 209.52404046 251.83506036 207.10968231 252.37890625 204.48046875 C253.64424335 199.01338725 255.44772965 193.95442219 257.5625 188.76171875 C258.74297241 185.68513343 259.80309705 182.60960493 260.83203125 179.48046875 C262.81259534 173.47791466 265.00228154 167.57319176 267.25390625 161.66796875 C271.02360402 151.69711039 274.61971158 141.67899113 278.09863281 131.60351562 C279.53442108 127.454204 280.98919447 123.31155386 282.44140625 119.16796875 C283.0208404 117.51041914 283.60026748 115.85286705 284.1796875 114.1953125 C285.37872443 110.7684395 286.58539047 107.3443664 287.796875 103.921875 C289.53320244 99.01123072 291.24493424 94.09251027 292.94140625 89.16796875 C293.28461914 88.18280273 293.28461914 88.18280273 293.63476562 87.17773438 C297.62469166 75.82098136 297.62469166 75.82098136 295.75390625 64.29296875 C292.42858283 60.3943137 288.95806072 58.88463367 283.94140625 58.16796875 C283.94140625 57.17796875 283.94140625 56.18796875 283.94140625 55.16796875 C298.13140625 55.16796875 312.32140625 55.16796875 326.94140625 55.16796875 C326.94140625 56.15796875 326.94140625 57.14796875 326.94140625 58.16796875 C326.34972656 58.338125 325.75804687 58.50828125 325.1484375 58.68359375 C324.35824219 58.9259375 323.56804687 59.16828125 322.75390625 59.41796875 C321.97660156 59.65 321.19929688 59.88203125 320.3984375 60.12109375 C311.3547195 63.974379 306.92286545 73.51445968 303.25390625 82.10546875 C301.28994615 87.07010231 299.55694154 92.09806172 297.93359375 97.18359375 C296.01342559 102.95921768 293.77178862 108.613926 291.56640625 114.28515625 C291.1384375 115.38730469 290.71046875 116.48945313 290.26953125 117.625 C289.38675147 119.89685972 288.5013494 122.16770229 287.61328125 124.4375 C285.39400683 130.16616922 283.37516611 135.86617809 281.67480469 141.76855469 C280.36647068 146.04894969 278.69912702 150.19050817 277.06640625 154.35546875 C274.22846809 161.69661357 271.57960311 169.04890551 269.13671875 176.53125 C265.16268442 188.62218452 260.69314453 200.5270882 256.19287109 212.42993164 C253.69500354 219.06783232 251.39052552 225.7301588 249.203125 232.4765625 C246.70003522 239.79984376 243.79953058 246.97735625 240.94140625 254.16796875 C241.67101562 253.78125 242.400625 253.39453125 243.15234375 252.99609375 C252.4947491 248.33642491 261.72614556 246.05301873 271.94140625 244.16796875 C273.54048828 243.87019531 273.54048828 243.87019531 275.171875 243.56640625 C277.76944909 243.1927073 280.19603835 243.06576621 282.81640625 243.10546875 C283.59757812 243.11449219 284.37875 243.12351562 285.18359375 243.1328125 C286.05371094 243.15021484 286.05371094 243.15021484 286.94140625 243.16796875 C287.06813721 242.29575684 287.19486816 241.42354492 287.32543945 240.52490234 C287.90874634 237.34596071 288.733445 234.50428078 289.796875 231.45703125 C290.16893066 230.38533691 290.54098633 229.31364258 290.92431641 228.20947266 C291.32183105 227.08202637 291.7193457 225.95458008 292.12890625 224.79296875 C292.74064697 223.04185791 292.74064697 223.04185791 293.36474609 221.25537109 C295.75476662 214.44385978 298.21087654 207.66286259 300.78100586 200.91748047 C302.66952809 195.94632773 304.44498564 190.94067842 306.19140625 185.91796875 C309.02853599 177.75842829 311.90919679 169.6153158 314.81640625 161.48046875 C315.24203857 160.28921387 315.6676709 159.09795898 316.10620117 157.87060547 C318.15047118 152.15530081 320.20126312 146.44245464 322.265625 140.734375 C326.5252376 128.95372518 330.69417201 117.14781064 334.7644043 105.30029297 C336.86046289 99.22047013 339.02186315 93.17564565 341.31640625 87.16796875 C343.15392585 82.35517769 344.75414867 77.56681288 346.15625 72.61328125 C347.45262849 68.57580396 349.16401014 64.71726041 350.85546875 60.83203125 C351.76462464 58.60165602 352.44048225 56.51674573 352.94140625 54.16796875 C354.92140625 54.16796875 356.90140625 54.16796875 358.94140625 54.16796875 C362.39014346 63.31159478 365.80643872 72.43366642 368.62890625 81.79296875 C370.07157565 86.5676274 371.70719194 91.07669911 373.84765625 95.58203125 C375.7392836 100.05437877 377.15387265 104.69332021 378.65771484 109.30761719 C380.14902968 113.85945919 381.73756436 118.33823228 383.50390625 122.79296875 C385.40723915 127.61230527 387.00333682 132.46345303 388.50390625 137.41796875 C389.76036837 141.5611067 391.0189504 145.62322709 392.87890625 149.54296875 C395.24656928 154.54453805 396.86940696 159.77389334 398.58740234 165.02416992 C400.55641906 171.03910295 402.62990312 177.00932613 404.7590332 182.96923828 C406.19507955 187.00485328 407.56662036 191.05423658 408.88452148 195.12988281 C410.49390774 200.10077392 412.18555313 204.8899627 414.44140625 209.60546875 C416.83263788 214.63452778 418.46970256 219.80636039 420.06640625 225.12475586 C421.35507829 229.3859312 422.79714272 233.52647999 424.44140625 237.66796875 C426.86285667 243.7709347 428.77714635 249.9535234 430.6328125 256.24609375 C431.78308528 259.91598951 433.32781032 263.34257467 434.92211914 266.83789062 C436.63094239 270.7442401 437.99806311 274.7614141 439.37890625 278.79296875 C439.67893555 279.65889648 439.97896484 280.52482422 440.28808594 281.41699219 C442.51424645 287.86264156 444.68023428 294.32748542 446.80078125 300.80859375 C447.85254594 303.90625688 448.9837834 306.95826359 450.14257812 310.01660156 C451.29409538 313.11781491 452.36398016 316.24570472 453.43994141 319.3737793 C461.90895629 346.35165334 461.90895629 346.35165334 481.50024414 365.28466797 C484.28859566 366.6432485 487.09892035 367.9263773 489.94140625 369.16796875 C489.94140625 370.15796875 489.94140625 371.14796875 489.94140625 372.16796875 C461.89140625 372.16796875 433.84140625 372.16796875 404.94140625 372.16796875 C404.94140625 371.17796875 404.94140625 370.18796875 404.94140625 369.16796875 C406.03453125 368.79671875 407.12765625 368.42546875 408.25390625 368.04296875 C410.99315971 366.82860335 411.94945655 366.15784095 413.87890625 363.73046875 C417.44024957 351.78949408 413.17157463 341.29861564 408.94140625 330.16796875 C408.33232422 328.52054687 408.33232422 328.52054687 407.7109375 326.83984375 C401.68941739 311.46749889 392.61833639 297.8076519 380.94140625 286.16796875 C380.26980469 285.31847656 379.59820312 284.46898437 378.90625 283.59375 C372.40910308 275.5724215 362.76745801 270.2432134 353.94140625 265.16796875 C353.04292969 264.64332031 352.14445312 264.11867188 351.21875 263.578125 C337.14823157 255.94562795 320.86644727 251.35536216 304.94140625 250.16796875 C304.25304687 250.11447266 303.5646875 250.06097656 302.85546875 250.00585938 C298.55319829 249.67581155 294.25022646 249.40021722 289.94140625 249.16796875 C289.76254883 249.780354 289.58369141 250.39273926 289.39941406 251.02368164 C287.64994656 256.94369408 285.74879973 262.78590023 283.69140625 268.60546875 C283.38984619 269.46382324 283.08828613 270.32217773 282.77758789 271.20654297 C280.7013527 277.09019622 278.55473409 282.94554496 276.37890625 288.79296875 C272.59116785 298.97812862 269.18575655 309.27851713 265.8203125 319.609375 C264.30747088 324.21853837 262.737623 328.74850647 260.87890625 333.23046875 C257.24005922 342.24848095 254.4362794 351.34880789 255.94140625 361.16796875 C257.39532687 364.50875524 259.39850936 366.51765684 262.83203125 367.96484375 C264.94408418 368.63455489 264.94408418 368.63455489 267.94140625 369.16796875 C267.94140625 370.15796875 267.94140625 371.14796875 267.94140625 372.16796875 C253.75140625 372.16796875 239.56140625 372.16796875 224.94140625 372.16796875 C224.94140625 371.17796875 224.94140625 370.18796875 224.94140625 369.16796875 C225.60527344 368.925625 226.26914062 368.68328125 226.953125 368.43359375 C228.27763672 367.93085937 228.27763672 367.93085937 229.62890625 367.41796875 C230.49902344 367.093125 231.36914062 366.76828125 232.265625 366.43359375 C237.82425849 363.80440068 240.8294325 360.29948842 244.00390625 355.10546875 C244.65488281 354.06261719 245.30585938 353.01976562 245.9765625 351.9453125 C248.58471976 347.2653816 250.17971042 342.21009193 251.94140625 337.16796875 C252.71375567 335.07367222 253.49126583 332.981273 254.2734375 330.890625 C258.35969612 319.9227205 262.41550442 308.95031105 266.25268555 297.89257812 C268.82107696 290.49225525 271.43702679 283.10933478 274.06640625 275.73046875 C274.47439453 274.5813501 274.88238281 273.43223145 275.30273438 272.24829102 C278.06416419 264.50769988 280.95740047 256.82544255 283.94140625 249.16796875 C254.62596874 252.60150089 231.73983949 261.70487 209.94140625 282.16796875 C209.2865625 282.72355469 208.63171875 283.27914063 207.95703125 283.8515625 C191.15882552 298.87970936 180.72007999 325.02771556 178.94140625 347.16796875 C178.02856116 368.71361381 178.34034599 388.32016288 187.94140625 408.16796875 C188.38226563 409.08964844 188.823125 410.01132812 189.27734375 410.9609375 C199.7193825 431.41233383 217.4544087 443.7272275 238.765625 450.90625 C247.14739185 453.52032154 254.83379768 454.52867452 263.62890625 454.48046875 C264.68891846 454.4755542 265.74893066 454.47063965 266.84106445 454.46557617 C288.32701629 454.14533153 310.15709983 446.02887881 325.94140625 431.16796875 C328.26663521 428.66848376 330.11779101 426.05061055 331.94140625 423.16796875 C332.60140625 422.14832031 333.26140625 421.12867188 333.94140625 420.078125 C344.47091323 403.22169869 346.20227084 384.76016087 343.94140625 365.16796875 C342.30183922 358.37620986 338.74556611 353.23602603 334.203125 348.0078125 C331.94140625 345.16796875 331.94140625 345.16796875 331.94140625 342.16796875 C341.11047459 345.21897222 346.19318493 353.8639512 350.37890625 362.10546875 C353.39953277 368.3744473 355.52210098 374.15827854 355.94140625 381.16796875 C356.02132813 382.47894531 356.10125 383.78992188 356.18359375 385.140625 C356.89736866 403.31755209 353.10881359 419.49509092 343.94140625 435.16796875 C343.38453125 436.16183594 342.82765625 437.15570313 342.25390625 438.1796875 C333.86894399 452.30915515 322.54902043 461.93130471 308.06640625 469.35546875 C307.44290283 469.67676758 306.81939941 469.99806641 306.17700195 470.32910156 C304.12209554 471.34227913 302.04892939 472.26912866 299.94140625 473.16796875 C299.08683838 473.53422363 298.23227051 473.90047852 297.35180664 474.27783203 C289.36051977 477.33554537 281.77208104 477.78686543 273.33374023 477.68945312 C271.14127753 477.6680893 268.9521268 477.68931407 266.75976562 477.71484375 C253.34449737 477.74374907 241.31128902 474.91525125 229.19140625 468.98046875 C228.38775635 468.59173584 227.58410645 468.20300293 226.75610352 467.80249023 C220.02062468 464.42761649 214.3989564 460.3778505 208.94140625 455.16796875 C208.09449219 454.39839844 207.24757813 453.62882812 206.375 452.8359375 C184.18532511 431.86584779 174.10594992 402.26255882 172.81762695 372.28808594 C172.51011882 360.18078102 172.41484274 348.44627876 175.28515625 336.6328125 C177.134925 326.86647392 174.7619568 319.60687844 171.37890625 310.35546875 C170.91622235 309.05923386 170.45489162 307.76251521 169.99487305 306.46533203 C169.07799272 303.88533385 168.15407601 301.30804724 167.22363281 298.73291016 C165.81542823 294.81771531 164.44770284 290.88988082 163.08911133 286.95727539 C159.29202979 275.98114581 155.31525301 265.06597746 151.19750977 254.20605469 C148.81955758 247.92895452 146.63833284 241.58661691 144.45898438 235.23828125 C144.16314453 234.38492188 143.86730469 233.5315625 143.5625 232.65234375 C143.29880615 231.88631836 143.0351123 231.12029297 142.76342773 230.33105469 C141.97610572 228.14951238 141.97610572 228.14951238 140.89697266 226.08325195 C139.78895226 223.86239861 139.18285135 221.59414531 138.53076172 219.20654297 C137.36047624 215.15853812 135.90730877 211.20230645 134.50390625 207.23046875 C134.0543457 205.9475293 134.0543457 205.9475293 133.59570312 204.63867188 C132.26653938 200.85877237 130.92122833 197.08858628 129.49609375 193.34375 C126.94310642 186.59033118 124.67685457 179.7307161 122.34570312 172.8984375 C120.32105051 167.00666403 118.1972388 161.18948643 115.84594727 155.42041016 C114.50429149 152.07948812 113.30988461 148.69334288 112.12890625 145.29296875 C111.87882812 144.58027832 111.62875 143.86758789 111.37109375 143.13330078 C109.97261726 139.14368158 108.58912524 135.14901117 107.2109375 131.15234375 C101.97350581 115.99716054 96.26916408 101.36694588 88.921875 87.09814453 C87.98625737 85.25626381 87.08277428 83.40269327 86.19140625 81.5390625 C72.76744416 53.72784474 52.95752569 29.53683262 25.94140625 14.16796875 C25.15765625 13.69617187 24.37390625 13.224375 23.56640625 12.73828125 C11.80444058 6.16301572 -2.70377574 3.43170842 -16.05859375 3.16796875 C-16.05859375 2.50796875 -16.05859375 1.84796875 -16.05859375 1.16796875 C-10.68236283 0.4152739 -5.43269813 0.00872593 0 0 Z " fill="#030303" transform="translate(73.05859375,39.83203125)"/>
<path d="M0 0 C1.12112938 -0.0049926 1.12112938 -0.0049926 2.26490784 -0.01008606 C3.84058016 -0.01511714 5.41626301 -0.01749558 6.99194336 -0.01733398 C9.34182509 -0.01949712 11.69121808 -0.03762892 14.04101562 -0.05664062 C21.77962702 -0.08620096 29.40865693 0.15921123 37.1015625 1.0390625 C38.10962196 1.15251762 38.10962196 1.15251762 39.13804626 1.26826477 C45.27167376 2.04931717 51.08916825 3.68541765 56.90625 5.76171875 C59.65576038 6.72857954 62.41411412 7.64017947 65.1953125 8.51171875 C97.44226425 18.85970304 117.98528996 43.26896997 133.17382812 72.52832031 C136.11924626 78.33227735 138.70480906 84.11719111 140.89453125 90.25 C142.01001879 93.35921342 143.27037343 96.37991535 144.56640625 99.41796875 C146.29022315 103.51203388 147.84113383 107.60086466 149.16796875 111.83984375 C150.08023749 114.5858648 151.11614564 117.28038794 152.13867188 119.98681641 C153.47625672 123.62123947 154.67220623 127.30096436 155.87890625 130.98046875 C158.82568736 139.88433986 161.96854488 148.68024164 165.37890625 157.41796875 C167.44806567 162.75855148 169.29072621 168.14895075 171.07055664 173.59204102 C172.37821138 177.56070968 173.79218873 181.46522731 175.31640625 185.35546875 C179.8143715 196.85498369 183.77433498 208.56410231 187.62890625 220.29296875 C189.22765961 225.13089015 190.96167458 229.85848682 192.90625 234.56640625 C194.66431687 238.98479318 196.19692202 243.48442455 197.77734375 247.96875 C198.65483907 250.38038984 199.57129381 252.70874331 200.62890625 255.04296875 C201.90954421 258.09210675 202.66862559 260.97513127 203.40234375 264.18359375 C203.95298347 266.21058635 204.69380948 268.00967301 205.56640625 269.91796875 C206.94140625 273.16796875 206.94140625 273.16796875 206.94140625 277.16796875 C208.26140625 276.83796875 209.58140625 276.50796875 210.94140625 276.16796875 C211.17578125 278.44140625 211.17578125 278.44140625 210.94140625 281.16796875 C209.39453125 282.95703125 209.39453125 282.95703125 207.19140625 284.79296875 C188.88483877 302.20442016 179.32494341 329.54227712 178.703125 354.3515625 C178.39627851 373.64876468 179.35019246 390.40776949 187.94140625 408.16796875 C188.38226563 409.08964844 188.823125 410.01132812 189.27734375 410.9609375 C199.7193825 431.41233383 217.4544087 443.7272275 238.765625 450.90625 C247.14739185 453.52032154 254.83379768 454.52867452 263.62890625 454.48046875 C264.68891846 454.4755542 265.74893066 454.47063965 266.84106445 454.46557617 C288.32701629 454.14533153 310.15709983 446.02887881 325.94140625 431.16796875 C328.26663521 428.66848376 330.11779101 426.05061055 331.94140625 423.16796875 C332.60140625 422.14832031 333.26140625 421.12867188 333.94140625 420.078125 C344.47091323 403.22169869 346.20227084 384.76016087 343.94140625 365.16796875 C342.30183922 358.37620986 338.74556611 353.23602603 334.203125 348.0078125 C331.94140625 345.16796875 331.94140625 345.16796875 331.94140625 342.16796875 C341.11047459 345.21897222 346.19318493 353.8639512 350.37890625 362.10546875 C353.39953277 368.3744473 355.52210098 374.15827854 355.94140625 381.16796875 C356.02132813 382.47894531 356.10125 383.78992188 356.18359375 385.140625 C356.89736866 403.31755209 353.10881359 419.49509092 343.94140625 435.16796875 C343.38453125 436.16183594 342.82765625 437.15570313 342.25390625 438.1796875 C333.86894399 452.30915515 322.54902043 461.93130471 308.06640625 469.35546875 C307.44290283 469.67676758 306.81939941 469.99806641 306.17700195 470.32910156 C304.12209554 471.34227913 302.04892939 472.26912866 299.94140625 473.16796875 C299.08683838 473.53422363 298.23227051 473.90047852 297.35180664 474.27783203 C289.36051977 477.33554537 281.77208104 477.78686543 273.33374023 477.68945312 C271.14127753 477.6680893 268.9521268 477.68931407 266.75976562 477.71484375 C253.34449737 477.74374907 241.31128902 474.91525125 229.19140625 468.98046875 C228.38775635 468.59173584 227.58410645 468.20300293 226.75610352 467.80249023 C220.02062468 464.42761649 214.3989564 460.3778505 208.94140625 455.16796875 C208.09449219 454.39839844 207.24757813 453.62882812 206.375 452.8359375 C184.18532511 431.86584779 174.10594992 402.26255882 172.81762695 372.28808594 C172.51011882 360.18078102 172.41484274 348.44627876 175.28515625 336.6328125 C177.134925 326.86647392 174.7619568 319.60687844 171.37890625 310.35546875 C170.91622235 309.05923386 170.45489162 307.76251521 169.99487305 306.46533203 C169.07799272 303.88533385 168.15407601 301.30804724 167.22363281 298.73291016 C165.81542823 294.81771531 164.44770284 290.88988082 163.08911133 286.95727539 C159.29202979 275.98114581 155.31525301 265.06597746 151.19750977 254.20605469 C148.81955758 247.92895452 146.63833284 241.58661691 144.45898438 235.23828125 C144.16314453 234.38492188 143.86730469 233.5315625 143.5625 232.65234375 C143.29880615 231.88631836 143.0351123 231.12029297 142.76342773 230.33105469 C141.97610572 228.14951238 141.97610572 228.14951238 140.89697266 226.08325195 C139.78895226 223.86239861 139.18285135 221.59414531 138.53076172 219.20654297 C137.36047624 215.15853812 135.90730877 211.20230645 134.50390625 207.23046875 C134.0543457 205.9475293 134.0543457 205.9475293 133.59570312 204.63867188 C132.26653938 200.85877237 130.92122833 197.08858628 129.49609375 193.34375 C126.94310642 186.59033118 124.67685457 179.7307161 122.34570312 172.8984375 C120.32105051 167.00666403 118.1972388 161.18948643 115.84594727 155.42041016 C114.50429149 152.07948812 113.30988461 148.69334288 112.12890625 145.29296875 C111.87882812 144.58027832 111.62875 143.86758789 111.37109375 143.13330078 C109.97261726 139.14368158 108.58912524 135.14901117 107.2109375 131.15234375 C101.97350581 115.99716054 96.26916408 101.36694588 88.921875 87.09814453 C87.98625737 85.25626381 87.08277428 83.40269327 86.19140625 81.5390625 C72.76744416 53.72784474 52.95752569 29.53683262 25.94140625 14.16796875 C25.15765625 13.69617187 24.37390625 13.224375 23.56640625 12.73828125 C11.80444058 6.16301572 -2.70377574 3.43170842 -16.05859375 3.16796875 C-16.05859375 2.50796875 -16.05859375 1.84796875 -16.05859375 1.16796875 C-10.68236283 0.4152739 -5.43269813 0.00872593 0 0 Z " fill="#030303" transform="translate(73.05859375,39.83203125)"/>
<path d="M0 0 C0.66 0 1.32 0 2 0 C6.31302388 10.46130697 10.42879584 20.92542753 13.91821289 31.69213867 C15.6907154 37.1452938 17.69190039 42.47645336 19.79296875 47.8125 C21.09161519 51.24193525 22.24092407 54.70030888 23.375 58.1875 C25.26998913 63.98040981 27.38106317 69.64629531 29.625 75.3125 C31.71201298 80.58267387 33.60930629 85.78793581 35.125 91.25390625 C36.39029319 95.22489336 37.95906365 99.06659838 39.5 102.9375 C41.80309386 108.72783119 43.75815951 114.41285998 45.2734375 120.46484375 C46.36347168 124.2682426 47.9788574 127.81027857 49.546875 131.4375 C51.70762113 136.73481309 53.53994421 142.13820973 55.39550781 147.54858398 C57.48402136 153.61436878 59.75990148 159.55476602 62.25 165.46875 C63.04714531 168.15911541 62.9773675 169.40997612 62 172 C61.6596875 171.45472656 61.319375 170.90945313 60.96875 170.34765625 C50.45149135 153.9843682 33.30976908 138.41831319 14.6171875 131.921875 C12 131 12 131 8.7578125 129.578125 C-7.10240838 122.68830862 -23.89489562 120.57003374 -41 119 C-40.22355648 113.99398256 -38.45248743 109.37295862 -36.75 104.625 C-34.55230443 98.43772817 -32.40476162 92.24442587 -30.375 86 C-28.92304251 81.59193297 -27.3410616 77.32209905 -25.5 73.0625 C-23.58219745 68.59556859 -22.02827265 64.08719215 -20.625 59.4375 C-18.57451342 52.64903548 -16.22050245 46.01431105 -13.73583984 39.37353516 C-11.1920911 32.5649011 -8.77483751 25.71681028 -6.39697266 18.84863281 C-5.0973009 15.10229218 -3.77265641 11.37312721 -2.359375 7.66796875 C-1.39643276 5.06968496 -0.62703417 2.67522286 0 0 Z " fill="#F9F9F9" transform="translate(407,164)"/>
<path d="M0 0 C0.33 0.99 0.66 1.98 1 3 C1.99 3 2.98 3 4 3 C3.93143799 3.61278809 3.86287598 4.22557617 3.79223633 4.85693359 C1.32894703 28.94291905 1.26991598 52.81821812 12 75 C12.66128906 76.38251953 12.66128906 76.38251953 13.3359375 77.79296875 C23.77797625 98.24436508 41.51300245 110.55925875 62.82421875 117.73828125 C71.2059856 120.35235279 78.89239143 121.36070577 87.6875 121.3125 C88.74751221 121.30758545 89.80752441 121.3026709 90.8996582 121.29760742 C112.38561004 120.97736278 134.21569358 112.86091006 150 98 C152.32522896 95.50051501 154.17638476 92.8826418 156 90 C156.99 88.47052734 156.99 88.47052734 158 86.91015625 C168.52950698 70.05372994 170.26086459 51.59219212 168 32 C166.36043297 25.20824111 162.80415986 20.06805728 158.26171875 14.83984375 C156 12 156 12 156 9 C165.16906834 12.05100347 170.25177868 20.69598245 174.4375 28.9375 C177.45812652 35.20647855 179.58069473 40.99030979 180 48 C180.11988281 49.96646484 180.11988281 49.96646484 180.2421875 51.97265625 C180.95596241 70.14958334 177.16740734 86.32712217 168 102 C167.443125 102.99386719 166.88625 103.98773438 166.3125 105.01171875 C157.92753774 119.1411864 146.60761418 128.76333596 132.125 136.1875 C131.50149658 136.50879883 130.87799316 136.83009766 130.2355957 137.16113281 C128.18068929 138.17431038 126.10752314 139.10115991 124 140 C123.14543213 140.36625488 122.29086426 140.73250977 121.41040039 141.10986328 C113.41911352 144.16757662 105.83067479 144.61889668 97.39233398 144.52148438 C95.19987128 144.50012055 93.01072055 144.52134532 90.81835938 144.546875 C77.40309112 144.57578032 65.36988277 141.7472825 53.25 135.8125 C52.4463501 135.42376709 51.6427002 135.03503418 50.81469727 134.63452148 C44.07921843 131.25964774 38.45755015 127.20988175 33 122 C32.15308594 121.23042969 31.30617188 120.46085937 30.43359375 119.66796875 C8.24391886 98.69787904 -1.83545633 69.09459007 -3.1237793 39.12011719 C-3.4632155 25.75573043 -3.30094585 13.00729853 0 0 Z " fill="#080808" transform="translate(249,373)"/>
<path d="M0 0 C14.19 0 28.38 0 43 0 C43 0.99 43 1.98 43 3 C42.40832031 3.17015625 41.81664062 3.3403125 41.20703125 3.515625 C40.02173828 3.87914063 40.02173828 3.87914063 38.8125 4.25 C38.03519531 4.48203125 37.25789063 4.7140625 36.45703125 4.953125 C27.41331325 8.80641025 22.9814592 18.34649093 19.3125 26.9375 C17.3485399 31.90213356 15.61553529 36.93009297 13.9921875 42.015625 C12.07201934 47.79124893 9.83038237 53.44595725 7.625 59.1171875 C7.19703125 60.21933594 6.7690625 61.32148438 6.328125 62.45703125 C5.44534522 64.72889097 4.55994315 66.99973354 3.671875 69.26953125 C1.45260058 74.99820047 -0.56624014 80.69820934 -2.26660156 86.60058594 C-3.57493557 90.88098094 -5.24227923 95.02253942 -6.875 99.1875 C-9.71293816 106.52864482 -12.36180314 113.88093676 -14.8046875 121.36328125 C-18.77872183 133.45421577 -23.24826172 145.35911945 -27.74853516 157.26196289 C-30.24640271 163.89986357 -32.55088073 170.56219005 -34.73828125 177.30859375 C-37.24137103 184.63187501 -40.14187567 191.8093875 -43 199 C-42.27039063 198.61328125 -41.54078125 198.2265625 -40.7890625 197.828125 C-31.44665715 193.16845616 -22.21526069 190.88504998 -12 189 C-10.40091797 188.70222656 -10.40091797 188.70222656 -8.76953125 188.3984375 C-6.17195716 188.02473855 -3.7453679 187.89779746 -1.125 187.9375 C-0.34382813 187.94652344 0.43734375 187.95554687 1.2421875 187.96484375 C2.11230469 187.98224609 2.11230469 187.98224609 3 188 C3.12673096 187.12778809 3.25346191 186.25557617 3.3840332 185.35693359 C3.96734009 182.17799196 4.79203875 179.33631203 5.85546875 176.2890625 C6.22752441 175.21736816 6.59958008 174.14567383 6.98291016 173.04150391 C7.3804248 171.91405762 7.77793945 170.78661133 8.1875 169.625 C8.59532715 168.45759277 9.0031543 167.29018555 9.42333984 166.08740234 C12.02683532 158.66749164 14.72720138 151.29276128 17.52734375 143.9453125 C19.64516556 138.3356319 21.59229964 132.66452985 23.55322266 126.99853516 C25.2962987 121.96944934 27.11107641 116.97625791 29 112 C31.4375 112.375 31.4375 112.375 34 113 C35 115 35 115 34.328125 117.50390625 C33.97234375 118.51324219 33.6165625 119.52257812 33.25 120.5625 C32.68152344 122.19445312 32.68152344 122.19445312 32.1015625 123.859375 C31.73804688 124.89578125 31.37453125 125.9321875 31 127 C30.53925584 128.4367291 30.08066034 129.87415048 29.625 131.3125 C28.2962204 135.32050368 26.71783974 139.21661555 25.125 143.125 C22.587319 149.36600659 20.38152668 155.67051037 18.29296875 162.078125 C16.86438388 166.4500198 15.34428794 170.78835889 13.8125 175.125 C13.43738281 176.19113525 13.43738281 176.19113525 13.0546875 177.27880859 C11.77806013 180.88528091 10.45290352 184.46069947 9 188 C10.60101563 188.03867187 10.60101563 188.03867187 12.234375 188.078125 C30.71386133 188.70187854 47.02250657 192.20963486 63.82055664 199.99804688 C66.09764298 201.0448893 68.39475912 202.03719259 70.6953125 203.03125 C81.96966078 208.04478089 96.05721136 217.58581705 103 228 C101.02 228.99 99.04 229.98 97 231 C96.14728516 229.88044922 96.14728516 229.88044922 95.27734375 228.73828125 C88.53332301 220.62926146 79.03888214 215.19762851 70 210 C69.10152344 209.47535156 68.20304688 208.95070313 67.27734375 208.41015625 C53.20682532 200.7776592 36.92504102 196.18739341 21 195 C20.31164062 194.94650391 19.62328125 194.89300781 18.9140625 194.83789062 C14.61179204 194.5078428 10.30882021 194.23224847 6 194 C5.82114258 194.61238525 5.64228516 195.22477051 5.45800781 195.85571289 C3.70854031 201.77572533 1.80739348 207.61793148 -0.25 213.4375 C-0.55156006 214.29585449 -0.85312012 215.15420898 -1.16381836 216.03857422 C-3.24005355 221.92222747 -5.38667216 227.77757621 -7.5625 233.625 C-11.3502384 243.81015987 -14.7556497 254.11054838 -18.12109375 264.44140625 C-19.63393537 269.05056962 -21.20378325 273.58053772 -23.0625 278.0625 C-26.70134703 287.0805122 -29.50512685 296.18083914 -28 306 C-26.54607938 309.34078649 -24.54289689 311.34968809 -21.109375 312.796875 C-18.99732207 313.46658614 -18.99732207 313.46658614 -16 314 C-16 314.99 -16 315.98 -16 317 C-30.19 317 -44.38 317 -59 317 C-59 316.01 -59 315.02 -59 314 C-58.33613281 313.75765625 -57.67226563 313.5153125 -56.98828125 313.265625 C-56.10527344 312.93046875 -55.22226562 312.5953125 -54.3125 312.25 C-53.44238281 311.92515625 -52.57226562 311.6003125 -51.67578125 311.265625 C-46.11714776 308.63643193 -43.11197375 305.13151967 -39.9375 299.9375 C-39.28652344 298.89464844 -38.63554687 297.85179687 -37.96484375 296.77734375 C-35.35668649 292.09741285 -33.76169583 287.04212318 -32 282 C-31.22765058 279.90570347 -30.45014042 277.81330425 -29.66796875 275.72265625 C-25.58171013 264.75475175 -21.52590183 253.7823423 -17.6887207 242.72460938 C-15.12032929 235.3242865 -12.50437946 227.94136603 -9.875 220.5625 C-9.46701172 219.41338135 -9.05902344 218.2642627 -8.63867188 217.08032227 C-5.87724206 209.33973113 -2.98400578 201.6574738 0 194 C-28.00768236 197.28036303 -50.90063304 205.60979964 -72 225 C-72.66 223.68 -73.32 222.36 -74 221 C-69.48296078 216.3460808 -64.88125601 211.75307862 -59.31640625 208.3671875 C-50.54021638 202.86569534 -47.89275978 196.46391111 -45 187 C-44.58088162 185.66661874 -44.16161137 184.3332852 -43.7421875 183 C-43.11861975 181.00170445 -42.50070257 179.0023346 -41.89746094 176.99780273 C-40.25348839 171.58892194 -38.23837082 166.38651572 -36.09423828 161.15893555 C-34.18119859 156.49208953 -32.52581239 151.80379396 -31 147 C-30.33576396 144.99919143 -29.66892954 142.99924429 -29 141 C-28.690625 140.071875 -28.38125 139.14375 -28.0625 138.1875 C-27.5365625 136.6096875 -27.5365625 136.6096875 -27 135 C-26.80140381 134.3810083 -26.60280762 133.7620166 -26.39819336 133.12426758 C-23.83886047 125.24144913 -20.81187245 117.53374989 -17.83666992 109.80102539 C-14.6823777 101.59346095 -11.73199083 93.35681048 -9 85 C-7.97509812 81.9732539 -6.92875698 78.9543095 -5.875 75.9375 C-5.58641113 75.10951904 -5.29782227 74.28153809 -5.00048828 73.4284668 C-2.81127538 67.195307 -0.51507007 61.00617528 1.80859375 54.82202148 C11.94500945 32.45087267 11.94500945 32.45087267 11.8125 9.125 C8.48717658 5.22634495 5.01665447 3.71666492 0 3 C0 2.01 0 1.02 0 0 Z " fill="#151515" transform="translate(357,95)"/>
<path d="M0 0 C0.99 0.33 1.98 0.66 3 1 C2.41201979 6.03336904 1.33202876 10.49092497 -0.3125 15.3125 C-0.53470215 15.96766602 -0.7569043 16.62283203 -0.98583984 17.29785156 C-2.25586832 20.99793452 -3.62763595 24.63666977 -5.125 28.25 C-8.75660493 37.19614873 -11.49337456 46.25750882 -10 56 C-8.54607938 59.34078649 -6.54289689 61.34968809 -3.109375 62.796875 C-0.99732207 63.46658614 -0.99732207 63.46658614 2 64 C2 64.99 2 65.98 2 67 C-12.19 67 -26.38 67 -41 67 C-41 66.01 -41 65.02 -41 64 C-40.33613281 63.75765625 -39.67226563 63.5153125 -38.98828125 63.265625 C-38.10527344 62.93046875 -37.22226562 62.5953125 -36.3125 62.25 C-35.00732422 61.76273437 -35.00732422 61.76273437 -33.67578125 61.265625 C-28.11714776 58.63643193 -25.11197375 55.13151967 -21.9375 49.9375 C-20.96103516 48.37322266 -20.96103516 48.37322266 -19.96484375 46.77734375 C-17.35959829 42.09395913 -15.75930437 37.04526492 -14 32 C-12.40806876 27.60399345 -10.79406709 23.21670438 -9.16333008 18.83496094 C-8.67339429 17.511986 -8.18781629 16.18739022 -7.70629883 14.86132812 C-7.00114186 12.92161423 -6.28150839 10.9878416 -5.55859375 9.0546875 C-5.13892334 7.91499512 -4.71925293 6.77530273 -4.28686523 5.60107422 C-3.86219971 4.74271973 -3.43753418 3.88436523 -3 3 C-2.01 2.67 -1.02 2.34 0 2 C0 1.34 0 0.68 0 0 Z " fill="#0E0E0E" transform="translate(339,345)"/>
<path d="M0 0 C14.19 0 28.38 0 43 0 C43 0.99 43 1.98 43 3 C42.40832031 3.17015625 41.81664062 3.3403125 41.20703125 3.515625 C40.41683594 3.75796875 39.62664062 4.0003125 38.8125 4.25 C38.03519531 4.48203125 37.25789063 4.7140625 36.45703125 4.953125 C27.41331325 8.80641025 22.9814592 18.34649093 19.3125 26.9375 C17.3170467 31.98174425 15.57522375 37.09611173 13.8984375 42.25390625 C11.68144605 49.03018881 8.95709719 55.51540109 6 62 C5.34 62 4.68 62 4 62 C4 62.66 4 63.32 4 64 C2.02 64.495 2.02 64.495 0 65 C0.48335442 58.5383146 1.71971969 53.43378417 4.25 47.5 C12.7128922 28.68412223 12.7128922 28.68412223 11.8125 9.125 C8.48717658 5.22634495 5.01665447 3.71666492 0 3 C0 2.01 0 1.02 0 0 Z " fill="#0D0D0D" transform="translate(357,95)"/>
<path d="M0 0 C9.16906834 3.05100347 14.25177868 11.69598245 18.4375 19.9375 C25.08408417 33.73175536 25.4779405 49.01341588 23 64 C22.731875 63.4225 22.46375 62.845 22.1875 62.25 C20.9611378 59.92636635 19.75156566 57.96175354 18 56 C17.01 56 16.02 56 15 56 C14.34 58.31 13.68 60.62 13 63 C12.01 63 11.02 63 10 63 C10.13784912 62.37198486 10.27569824 61.74396973 10.41772461 61.09692383 C13.59855996 45.38578304 15.68033417 25.79941385 7.01953125 11.62890625 C5.48320335 9.62900552 3.91282684 7.74021966 2.26171875 5.83984375 C0 3 0 3 0 0 Z " fill="#101010" transform="translate(405,382)"/>
<path d="M0 0 C1.98 0 3.96 0 6 0 C5.52309796 1.62566606 5.04340334 3.25051311 4.5625 4.875 C4.29566406 5.77992188 4.02882813 6.68484375 3.75390625 7.6171875 C3 10 3 10 2 12 C3.98 11.34 5.96 10.68 8 10 C8.99 11.32 9.98 12.64 11 14 C9.36804688 14.72703125 9.36804688 14.72703125 7.703125 15.46875 C-5.34644217 21.37978682 -16.52835907 28.05722982 -27 38 C-27.66 36.68 -28.32 35.36 -29 34 C-24.48296078 29.3460808 -19.88125601 24.75307862 -14.31640625 21.3671875 C-5.48515545 15.83117953 -2.9586861 9.58764102 0 0 Z " fill="#171717" transform="translate(312,282)"/>
<path d="M0 0 C0.33 0 0.66 0 1 0 C1.33 2.31 1.66 4.62 2 7 C-1.465 8.485 -1.465 8.485 -5 10 C34.6 10.495 34.6 10.495 75 11 C75 11.33 75 11.66 75 12 C46.95 12 18.9 12 -10 12 C-10 11.01 -10 10.02 -10 9 C-8.3603125 8.443125 -8.3603125 8.443125 -6.6875 7.875 C-3.45411511 6.5201201 -3.01423545 6.02341962 -1.0625 2.8125 C-0.711875 1.884375 -0.36125 0.95625 0 0 Z " fill="#171717" transform="translate(488,400)"/>
<path d="M0 0 C0 1.32 0 2.64 0 4 C-1.65 4.33 -3.3 4.66 -5 5 C-5 5.66 -5 6.32 -5 7 C-4.28972656 6.91621094 -3.57945312 6.83242188 -2.84765625 6.74609375 C-1.92855469 6.64425781 -1.00945312 6.54242188 -0.0625 6.4375 C1.31228516 6.28087891 1.31228516 6.28087891 2.71484375 6.12109375 C3.46894531 6.08113281 4.22304688 6.04117187 5 6 C6 7 6 7 6.25 9.8125 C5.97826344 13.27714111 5.31309135 14.49415104 3 17 C1.35 16.67 -0.3 16.34 -2 16 C-2 15.34 -2 14.68 -2 14 C-0.35 13.67 1.3 13.34 3 13 C3.33 11.68 3.66 10.36 4 9 C2.948125 9.350625 1.89625 9.70125 0.8125 10.0625 C-2.7954681 10.94970527 -4.52632489 11.05262882 -8 10 C-8.33 7.69 -8.66 5.38 -9 3 C-5.92807025 0.26939578 -4.09590633 -0.34132553 0 0 Z " fill="#1D1D1D" transform="translate(500,377)"/>
<path d="M0 0 C2.77839694 0.65804138 3.72360727 1.25055018 5.375 3.5625 C6.0625 5.75 6.0625 5.75 6.375 7.5625 C7.035 6.2425 7.695 4.9225 8.375 3.5625 C9.365 6.8625 10.355 10.1625 11.375 13.5625 C7.64430717 12.81636143 4.80095393 12.03076597 1.375 10.5625 C1.375 8.5825 1.375 6.6025 1.375 4.5625 C0.055 4.8925 -1.265 5.2225 -2.625 5.5625 C-2.625 7.2125 -2.625 8.8625 -2.625 10.5625 C-1.635 10.8925 -0.645 11.2225 0.375 11.5625 C0.375 12.2225 0.375 12.8825 0.375 13.5625 C-1.375 13.4375 -1.375 13.4375 -3.625 12.5625 C-5.875 9.5 -5.875 9.5 -7.625 6.5625 C-3.36574074 0.72123016 -3.36574074 0.72123016 0 0 Z " fill="#272727" transform="translate(518.625,356.4375)"/>
<path d="M0 0 C0.28617187 0.63421875 0.57234375 1.2684375 0.8671875 1.921875 C2.22655542 4.41561201 3.41080309 4.96432124 6 6 C6.3125 8.75 6.3125 8.75 6 12 C3.75 14.4375 3.75 14.4375 1 16 C-1.125 15.8125 -1.125 15.8125 -3 15 C-3.99 14.67 -4.98 14.34 -6 14 C-4.16508812 9.25981099 -2.08058541 4.63586749 0 0 Z " fill="#222222" transform="translate(414,446)"/>
<path d="M0 0 C6.50045699 0.55323038 13.27075659 2.27075659 18 7 C15.8125 8.625 15.8125 8.625 13 10 C10.67578125 9.2109375 10.67578125 9.2109375 8 8 C5.17845696 6.98835432 2.35196968 5.99192361 -0.4765625 5 C-3 4 -3 4 -6 2 C-4.35 2 -2.7 2 -1 2 C-0.67 1.34 -0.34 0.68 0 0 Z " fill="#1B1B1B" transform="translate(414,294)"/>
<path d="M0 0 C3.36591866 1.44253657 5.51047079 3.33264727 8 6 C6.35 5.67 4.7 5.34 3 5 C3.33 5.99 3.66 6.98 4 8 C4.62648438 7.91621094 5.25296875 7.83242188 5.8984375 7.74609375 C6.71570313 7.64425781 7.53296875 7.54242188 8.375 7.4375 C9.18710937 7.33308594 9.99921875 7.22867187 10.8359375 7.12109375 C13 7 13 7 15 8 C15 8.99 15 9.98 15 11 C14.05125 10.79375 13.1025 10.5875 12.125 10.375 C11.09375 10.25125 10.0625 10.1275 9 10 C6.65026182 11.89755144 6.65026182 11.89755144 6.875 15.125 C6.936875 16.548125 6.936875 16.548125 7 18 C6.34 18 5.68 18 5 18 C4.73445313 17.39671875 4.46890625 16.7934375 4.1953125 16.171875 C3.84210938 15.37265625 3.48890625 14.5734375 3.125 13.75 C2.77695312 12.96109375 2.42890625 12.1721875 2.0703125 11.359375 C1.03980642 9.01210265 1.03980642 9.01210265 -0.15625 6.875 C-1.31152942 4.30771239 -0.73645578 2.65124081 0 0 Z " fill="#262626" transform="translate(504,368)"/>
<path d="M0 0 C0.33 0.99 0.66 1.98 1 3 C1.99 3 2.98 3 4 3 C3.90150757 3.93549683 3.90150757 3.93549683 3.80102539 4.88989258 C3.01823317 12.81629277 2.68918335 20.72852994 2.4375 28.6875 C2.37272461 30.61625977 2.37272461 30.61625977 2.30664062 32.58398438 C2.20163202 35.72257494 2.09947595 38.86123004 2 42 C1.67 42 1.34 42 1 42 C1 33.09 1 24.18 1 15 C0.01 15.33 -0.98 15.66 -2 16 C-1.85833643 14.08302063 -1.71150416 12.16642277 -1.5625 10.25 C-1.48128906 9.18265625 -1.40007812 8.1153125 -1.31640625 7.015625 C-1.05909227 4.56320038 -0.68187782 2.36078709 0 0 Z " fill="#343434" transform="translate(249,373)"/>
<path d="M0 0 C0.33 0 0.66 0 1 0 C1 7.59 1 15.18 1 23 C2.98 23 4.96 23 7 23 C8.875 24.5625 8.875 24.5625 10 27 C10.1875 30.75 10.1875 30.75 10 34 C9.731875 33.4225 9.46375 32.845 9.1875 32.25 C7.9611378 29.92636635 6.75156566 27.96175354 5 26 C4.01 26 3.02 26 2 26 C1.34 28.31 0.68 30.62 0 33 C-0.99 33 -1.98 33 -3 33 C-2.86722656 32.46117187 -2.73445313 31.92234375 -2.59765625 31.3671875 C-0.38270441 21.05230231 -0.34206394 10.50803723 0 0 Z " fill="#505050" transform="translate(418,412)"/>
<path d="M0 0 C4.46523352 3.63833842 6.93330159 8.71467291 9 14 C9 15.32 9 16.64 9 18 C7.00045254 18.04254356 4.99958364 18.04080783 3 18 C1.23555246 16.23555246 1.66375615 13.64785795 1.5 11.25 C1.23547119 7.41433232 0.83450339 3.75526526 0 0 Z " fill="#272727" transform="translate(487,383)"/>
<path d="M0 0 C0.78773804 0.00141495 1.57547607 0.0028299 2.38708496 0.00428772 C4.87268064 0.00983013 7.35818211 0.0223714 9.84375 0.03515625 C11.54166535 0.04017871 13.23958214 0.0447403 14.9375 0.04882812 C19.07295229 0.05978061 23.20833524 0.07700459 27.34375 0.09765625 C27.34375 0.42765625 27.34375 0.75765625 27.34375 1.09765625 C17.77375 1.42765625 8.20375 1.75765625 -1.65625 2.09765625 C-0.99625 2.75765625 -0.33625 3.41765625 0.34375 4.09765625 C-5.26625 3.76765625 -10.87625 3.43765625 -16.65625 3.09765625 C-16.65625 2.43765625 -16.65625 1.77765625 -16.65625 1.09765625 C-11.05397268 0.29772634 -5.65423115 -0.03911075 0 0 Z " fill="#454545" transform="translate(73.65625,39.90234375)"/>
<path d="M0 0 C4.28493007 1.36577456 6.43145705 3.20681345 9.3125 6.625 C10.00988281 7.44226563 10.70726562 8.25953125 11.42578125 9.1015625 C11.94527344 9.72804688 12.46476562 10.35453125 13 11 C11.68 11.99 10.36 12.98 9 14 C8.443125 13.29875 7.88625 12.5975 7.3125 11.875 C6.10658194 10.37575052 4.8942094 8.88012397 3.62109375 7.4375 C0 3.31089744 0 3.31089744 0 0 Z " fill="#1E1E1E" transform="translate(405,382)"/>
<path d="M0 0 C1.98 0 3.96 0 6 0 C5.01 3.3 4.02 6.6 3 10 C1.35 10.33 -0.3 10.66 -2 11 C-2.95465783 8.83032311 -3.14401212 7.43671207 -2.3984375 5.17578125 C-1.64129615 3.4315257 -0.82390802 1.71372869 0 0 Z " fill="#242424" transform="translate(312,282)"/>
<path d="M0 0 C2.0625 0.4375 2.0625 0.4375 4 1 C3.938125 1.78375 3.87625 2.5675 3.8125 3.375 C3.874375 4.24125 3.93625 5.1075 4 6 C4.99 6.66 5.98 7.32 7 8 C5.68 8 4.36 8 3 8 C3.99 9.98 4.98 11.96 6 14 C4.68 13.67 3.36 13.34 2 13 C2 12.34 2 11.68 2 11 C1.34 10.67 0.68 10.34 0 10 C0.66 10 1.32 10 2 10 C1.319375 9.2575 0.63875 8.515 -0.0625 7.75 C-2 5 -2 5 -1.8125 2.75 C-1 1 -1 1 0 0 Z " fill="#212121" transform="translate(517,360)"/>
<path d="M0 0 C3 2 3 2 4 5 C5.65 5 7.3 5 9 5 C8.34 8.96 7.68 12.92 7 17 C5 13 5 13 4.0625 11 C2.15891945 7.41678955 0.40001743 5.26667829 -3 3 C-2.01 2.01 -1.02 1.02 0 0 Z " fill="#2E2E2E" transform="translate(418,442)"/>
<path d="M0 0 C1.32 0.66 2.64 1.32 4 2 C1.2520787 6.27454425 -1.69250989 10.14126153 -5 14 C-5.66 13.01 -6.32 12.02 -7 11 C-6.38125 10.46375 -5.7625 9.9275 -5.125 9.375 C-2.71617686 6.6827859 -1.99270452 4.43628489 -1 1 C-0.67 0.67 -0.34 0.34 0 0 Z " fill="#E5E5E5" transform="translate(403,459)"/>
<path d="M0 0 C0.33 0 0.66 0 1 0 C1.33 2.31 1.66 4.62 2 7 C0.2984375 7.680625 0.2984375 7.680625 -1.4375 8.375 C-5.04721692 9.57095806 -5.04721692 9.57095806 -6 12 C-7.32 12 -8.64 12 -10 12 C-10 11.01 -10 10.02 -10 9 C-8.3603125 8.443125 -8.3603125 8.443125 -6.6875 7.875 C-3.45411511 6.5201201 -3.01423545 6.02341962 -1.0625 2.8125 C-0.711875 1.884375 -0.36125 0.95625 0 0 Z " fill="#2C2C2C" transform="translate(488,400)"/>
<path d="M0 0 C1.65 0 3.3 0 5 0 C5.36923077 5.41538462 5.36923077 5.41538462 3.5 8.375 C3.005 8.91125 2.51 9.4475 2 10 C0.35 9.67 -1.3 9.34 -3 9 C-3 8.34 -3 7.68 -3 7 C-1.35 6.67 0.3 6.34 2 6 C2 4.68 2 3.36 2 2 C1.34 1.34 0.68 0.68 0 0 Z " fill="#242424" transform="translate(501,384)"/>
<path d="M0 0 C1.59373901 2.39060851 2.65297076 4.30828179 3.6875 6.9375 C3.95949219 7.60652344 4.23148437 8.27554687 4.51171875 8.96484375 C5.0787676 11.32830338 4.76024003 12.7192799 4 15 C2.93624799 13.45245118 1.89963986 11.88621816 0.875 10.3125 C0.00488281 9.00732422 0.00488281 9.00732422 -0.8828125 7.67578125 C-2 5 -2 5 -1.1796875 2.16796875 C-0.79039062 1.45253906 -0.40109375 0.73710937 0 0 Z " fill="#C4C4C4" transform="translate(465,321)"/>
<path d="M0 0 C0.66 1.32 1.32 2.64 2 4 C1.34 4 0.68 4 0 4 C0 4.66 0 5.32 0 6 C0.66 6.33 1.32 6.66 2 7 C1.01 7 0.02 7 -1 7 C-1.33 8.98 -1.66 10.96 -2 13 C-3.32 13.33 -4.64 13.66 -6 14 C-4.16508812 9.25981099 -2.08058541 4.63586749 0 0 Z " fill="#383838" transform="translate(414,446)"/>
<path d="M0 0 C1 3 1 3 0 6 C-1.6222454 7.70993434 -3.29413425 9.37347684 -5 11 C-5.763125 11.763125 -6.52625 12.52625 -7.3125 13.3125 C-8.1478125 14.1478125 -8.1478125 14.1478125 -9 15 C-7.61219205 11.10993227 -5.7847773 8.03441292 -3.375 4.6875 C-2.74335938 3.80449219 -2.11171875 2.92148437 -1.4609375 2.01171875 C-0.97882813 1.34785156 -0.49671875 0.68398438 0 0 Z " fill="#D0D0D0" transform="translate(275,329)"/>
<path d="M0 0 C0.33 0.66 0.66 1.32 1 2 C3.01669827 3.13350534 3.01669827 3.13350534 5 4 C4.01 4 3.02 4 2 4 C2 4.99 2 5.98 2 7 C0.02 6.34 -1.96 5.68 -4 5 C-3.67 4.01 -3.34 3.02 -3 2 C-2.34 2 -1.68 2 -1 2 C-0.67 1.34 -0.34 0.68 0 0 Z " fill="#E8E8E8" transform="translate(476,405)"/>
<path d="M0 0 C1.67542976 0.28604898 3.34385343 0.61781233 5 1 C5 2.32 5 3.64 5 5 C3.02 5 1.04 5 -1 5 C-1 1 -1 1 0 0 Z " fill="#1E1E1E" transform="translate(491,396)"/>
<path d="M0 0 C2.18975773 3.28463659 2.99806563 6.20696275 4 10 C2.35 9.67 0.7 9.34 -1 9 C-0.67 6.03 -0.34 3.06 0 0 Z " fill="#333333" transform="translate(526,360)"/>
<path d="M0 0 C2.0625 0.4375 2.0625 0.4375 4 1 C4 2.32 4 3.64 4 5 C0.25 6.125 0.25 6.125 -2 5 C-1.125 1.125 -1.125 1.125 0 0 Z " fill="#080808" transform="translate(517,360)"/>
<path d="M0 0 C0 1.32 0 2.64 0 4 C-2.31 4.33 -4.62 4.66 -7 5 C-7.33 4.01 -7.66 3.02 -8 2 C-2.25 0 -2.25 0 0 0 Z " fill="#070707" transform="translate(328,290)"/>
<path d="M0 0 C1.7074998 1.28062485 3.37373596 2.61767557 5 4 C5 4.66 5 5.32 5 6 C2 6 -1 6 -4 6 C-2.68 4.02 -1.36 2.04 0 0 Z " fill="#323232" transform="translate(407,460)"/>
<path d="M0 0 C0 0.33 0 0.66 0 1 C-2.97 1.66 -5.94 2.32 -9 3 C-9.33 1.68 -9.66 0.36 -10 -1 C-6.18510326 -2.46726798 -3.70988378 -1.43336419 0 0 Z " fill="#141414" transform="translate(517,374)"/>
<path d="M0 0 C3.36591866 1.44253657 5.51047079 3.33264727 8 6 C6.35 5.67 4.7 5.34 3 5 C2.67 5.66 2.34 6.32 2 7 C2 5.35 2 3.7 2 2 C1.34 2 0.68 2 0 2 C-0.33 2.99 -0.66 3.98 -1 5 C-0.67 3.35 -0.34 1.7 0 0 Z " fill="#1F1F1F" transform="translate(504,368)"/>
<path d="M0 0 C3.65316671 1.24976756 4.78065836 1.67098753 7 5 C6.34 5 5.68 5 5 5 C4.67 5.99 4.34 6.98 4 8 C0 3.375 0 3.375 0 0 Z " fill="#2B2B2B" transform="translate(405,382)"/>
<path d="M0 0 C4.95 0 9.9 0 15 0 C15 0.33 15 0.66 15 1 C14.18015625 1.04898437 13.3603125 1.09796875 12.515625 1.1484375 C11.43796875 1.22320312 10.3603125 1.29796875 9.25 1.375 C7.64898437 1.47941406 7.64898437 1.47941406 6.015625 1.5859375 C3.19793568 1.9728223 1.4169634 2.55686166 -1 4 C-0.67 2.68 -0.34 1.36 0 0 Z " fill="#D3D3D3" transform="translate(363,289)"/>
<path d="M0 0 C1.98 0.495 1.98 0.495 4 1 C4 1.99 4 2.98 4 4 C3.34 4 2.68 4 2 4 C2 4.66 2 5.32 2 6 C1.01 6 0.02 6 -1 6 C-0.67 4.02 -0.34 2.04 0 0 Z " fill="#070707" transform="translate(413,453)"/>
<path d="M0 0 C-0.99 0.33 -1.98 0.66 -3 1 C-3.33 1.99 -3.66 2.98 -4 4 C-5.65 3.67 -7.3 3.34 -9 3 C-8.67 2.01 -8.34 1.02 -8 0 C-4.71023192 -1.09658936 -3.28696233 -0.79953138 0 0 Z " fill="#0D0D0D" transform="translate(417,293)"/>
<path d="M0 0 C2 3 2 3 2 7 C1.01 7 0.02 7 -1 7 C-1 6.34 -1 5.68 -1 5 C-1.66 4.67 -2.32 4.34 -3 4 C-2.01 2.68 -1.02 1.36 0 0 Z " fill="#292929" transform="translate(402,467)"/>
<path d="M0 0 C3 2 3 2 3.6875 4.625 C3.790625 5.40875 3.89375 6.1925 4 7 C1.50638429 5.79618552 -0.68143083 4.54571278 -3 3 C-2.01 2.01 -1.02 1.02 0 0 Z " fill="#222222" transform="translate(418,442)"/>
<path d="M0 0 C0.33 0 0.66 0 1 0 C1.36630156 3.93774177 1.30233203 5.56539771 -1 8.875 C-1.66 9.57625 -2.32 10.2775 -3 11 C-2.53199289 6.94393835 -2.12046792 3.53411321 0 0 Z " fill="#3E3E3E" transform="translate(421,109)"/>
<path d="M0 0 C0.82810826 3.31243305 1.09278428 5.65976579 1 9 C-0.32 9.33 -1.64 9.66 -3 10 C-2.01 6.7 -1.02 3.4 0 0 Z " fill="#B7B7B7" transform="translate(317,284)"/>
<path d="M0 0 C0.66 0.33 1.32 0.66 2 1 C1.34 1.66 0.68 2.32 0 3 C0.66 3.66 1.32 4.32 2 5 C0.68 5.99 -0.64 6.98 -2 8 C-2.6875 5.6875 -2.6875 5.6875 -3 3 C-1.5625 1.1875 -1.5625 1.1875 0 0 Z " fill="#2E2E2E" transform="translate(286,312)"/>
<path d="M0 0 C1.32 0.33 2.64 0.66 4 1 C3.67 2.32 3.34 3.64 3 5 C2.01 4.67 1.02 4.34 0 4 C0 2.68 0 1.36 0 0 Z " fill="#161616" transform="translate(410,387)"/>
<path d="M0 0 C0.78375 0.04125 1.5675 0.0825 2.375 0.125 C1.75625 0.57875 1.1375 1.0325 0.5 1.5 C-1.68419833 3.09608919 -1.68419833 3.09608919 -3.625 5.125 C-4.615 5.455 -5.605 5.785 -6.625 6.125 C-3.85227273 0.18344156 -3.85227273 0.18344156 0 0 Z " fill="#1E1E1E" transform="translate(518.625,356.875)"/>
<path d="M0 0 C0.66 0.33 1.32 0.66 2 1 C1.67 2.32 1.34 3.64 1 5 C-0.98 4.34 -2.96 3.68 -5 3 C-4.360625 2.690625 -3.72125 2.38125 -3.0625 2.0625 C-1.06389179 1.1654837 -1.06389179 1.1654837 0 0 Z " fill="#D0D0D0" transform="translate(426,293)"/>
</svg>
