<svg xmlns="http://www.w3.org/2000/svg" style="display:none">
  <symbol id="moon" viewBox="0 0 24 24">
    <path d="M20 14.5A8.5 8.5 0 0 1 9.5 4a9 9 0 1 0 10.5 10.5Z"/>
  </symbol>
  <symbol id="sun" viewBox="0 0 24 24">
    <circle cx="12" cy="12" r="4"/>
    <path d="M12 2v2.5M12 19.5V22M4.93 4.93l1.77 1.77M17.3 17.3l1.77 1.77M2 12h2.5M19.5 12H22M4.93 19.07l1.77-1.77M17.3 6.7l1.77-1.77"/>
  </symbol>
  <symbol id="menu" viewBox="0 0 24 24">
    <path d="M4 7h16M4 12h16M4 17h16"/>
  </symbol>
  <symbol id="close" viewBox="0 0 24 24">
    <path d="M6 6l12 12M18 6L6 18"/>
  </symbol>
  <symbol id="mail" viewBox="0 0 24 24">
    <rect x="3" y="5" width="18" height="14" rx="2"/>
    <path d="m4 7 8 6 8-6"/>
  </symbol>
  <symbol id="calendar" viewBox="0 0 24 24">
    <rect x="3" y="5" width="18" height="16" rx="2"/>
    <path d="M8 3v4M16 3v4M3 10h18"/>
  </symbol>
  <symbol id="lock" viewBox="0 0 24 24">
    <rect x="5" y="11" width="14" height="10" rx="2"/>
    <path d="M8 11V8a4 4 0 1 1 8 0v3"/>
  </symbol>
  <symbol id="chat" viewBox="0 0 24 24">
    <path d="M6 18H4a1 1 0 0 1-1-1V6a2 2 0 0 1 2-2h14a2 2 0 0 1 2 2v9a2 2 0 0 1-2 2H9l-3 3Z"/>
  </symbol>
  <symbol id="folder" viewBox="0 0 24 24">
    <path d="M3 7a2 2 0 0 1 2-2h4l2 2h8a2 2 0 0 1 2 2v8a2 2 0 0 1-2 2H5a2 2 0 0 1-2-2V7Z"/>
  </symbol>
  <symbol id="search" viewBox="0 0 24 24">
    <circle cx="11" cy="11" r="6"/>
    <path d="m20 20-4.2-4.2"/>
  </symbol>
  <symbol id="workflow" viewBox="0 0 24 24">
    <rect x="3" y="4" width="6" height="6" rx="1"/>
    <rect x="15" y="4" width="6" height="6" rx="1"/>
    <rect x="9" y="14" width="6" height="6" rx="1"/>
    <path d="M9 7h6M12 10v4"/>
  </symbol>
  <symbol id="shield" viewBox="0 0 24 24">
    <path d="M12 3 5 6v5c0 4.5 2.9 8.6 7 10 4.1-1.4 7-5.5 7-10V6l-7-3Z"/>
    <path d="m9.5 12 1.8 1.8 3.2-3.6"/>
  </symbol>
  <symbol id="check" viewBox="0 0 24 24">
    <path d="m5 12 4.2 4.2L19 6.8"/>
  </symbol>
  <symbol id="plus" viewBox="0 0 24 24">
    <path d="M12 5v14M5 12h14"/>
  </symbol>
  <symbol id="arrow-up" viewBox="0 0 24 24">
    <path d="M12 19V5M6 11l6-6 6 6"/>
  </symbol>
  <symbol id="whatsapp" viewBox="0 0 24 24">
    <path d="M20.5 11.8A8.5 8.5 0 0 1 7.3 19L3 20l1.1-4.1A8.5 8.5 0 1 1 20.5 11.8Z"/>
    <path d="M8.8 8.7c.2-.4.4-.4.6-.4h.5c.2 0 .5 0 .7.5l.5 1.3c.1.3.1.5 0 .7l-.4.6c-.1.2-.2.3 0 .6.3.5.8 1.2 1.6 1.8.9.7 1.7.9 2.1 1 .3.1.5 0 .6-.2l.6-.7c.2-.2.4-.2.7-.1l1.2.6c.3.2.5.3.5.6v.5c0 .2-.1.5-.4.7-.4.3-1 .7-1.9.6-.8-.1-1.8-.4-3.1-1.4-1.6-1.2-2.7-2.8-3.1-3.5-.4-.7-.8-1.7-.4-2.5Z"/>
  </symbol>
</svg>
